<mxfile host="app.diagrams.net" agent="Mozilla/5.0 (Windows NT 10.0; Win64; x64) AppleWebKit/537.36 (KHTML, like Gecko) Chrome/134.0.0.0 Safari/537.36" version="26.2.8">
  <diagram name="Page-1" id="2YBvvXClWsGukQMizWep">
    <mxGraphModel dx="2190" dy="705" grid="1" gridSize="10" guides="1" tooltips="1" connect="1" arrows="1" fold="1" page="1" pageScale="1" pageWidth="850" pageHeight="1100" math="0" shadow="0">
      <root>
        <mxCell id="0" />
        <mxCell id="1" parent="0" />
        <mxCell id="51Oc-zoMCvbec5EIXnkQ-53" value="registrarNuevoCliente()" style="html=1;verticalAlign=bottom;endArrow=block;curved=0;rounded=0;" edge="1" parent="1">
          <mxGeometry width="80" relative="1" as="geometry">
            <mxPoint x="-57" y="320.41" as="sourcePoint" />
            <mxPoint x="525" y="320.4100000000001" as="targetPoint" />
          </mxGeometry>
        </mxCell>
        <mxCell id="51Oc-zoMCvbec5EIXnkQ-17" value="opt" style="shape=umlFrame;whiteSpace=wrap;html=1;pointerEvents=0;" vertex="1" parent="1">
          <mxGeometry x="-220" y="220" width="1020" height="180" as="geometry" />
        </mxCell>
        <mxCell id="aM9ryv3xv72pqoxQDRHE-7" value="crearNuevoAlquiler(Cliente, Vehiculo, Fecha&lt;span style=&quot;background-color: light-dark(#ffffff, var(--ge-dark-color, #121212)); color: light-dark(rgb(0, 0, 0), rgb(255, 255, 255));&quot;&gt;)&lt;/span&gt;" style="html=1;verticalAlign=bottom;endArrow=block;edgeStyle=elbowEdgeStyle;elbow=vertical;curved=0;rounded=0;" parent="1" edge="1">
          <mxGeometry relative="1" as="geometry">
            <mxPoint x="119" y="137" as="sourcePoint" />
            <Array as="points">
              <mxPoint x="180" y="137" />
            </Array>
            <mxPoint x="349" y="137" as="targetPoint" />
          </mxGeometry>
        </mxCell>
        <mxCell id="51Oc-zoMCvbec5EIXnkQ-19" value="&lt;span style=&quot;background-color: rgb(255, 255, 255);&quot;&gt;comprobarDatos(Cliente,fecha)&lt;/span&gt;" style="html=1;verticalAlign=bottom;endArrow=block;curved=0;rounded=0;" edge="1" parent="1">
          <mxGeometry x="0.0043" width="80" relative="1" as="geometry">
            <mxPoint x="359" y="150.17999999999995" as="sourcePoint" />
            <mxPoint x="690" y="150" as="targetPoint" />
            <mxPoint as="offset" />
          </mxGeometry>
        </mxCell>
        <mxCell id="51Oc-zoMCvbec5EIXnkQ-34" value="&lt;font style=&quot;font-size: 11px;&quot;&gt;[Cliente no registrado]&lt;/font&gt;" style="text;html=1;align=center;verticalAlign=middle;resizable=0;points=[];autosize=1;strokeColor=none;fillColor=none;" vertex="1" parent="1">
          <mxGeometry x="-224" y="260" width="130" height="30" as="geometry" />
        </mxCell>
        <mxCell id="51Oc-zoMCvbec5EIXnkQ-35" value="actualizarBD(Cliente)" style="html=1;verticalAlign=bottom;endArrow=block;curved=0;rounded=0;" edge="1" parent="1">
          <mxGeometry width="80" relative="1" as="geometry">
            <mxPoint x="529.5" y="340" as="sourcePoint" />
            <mxPoint x="690" y="340" as="targetPoint" />
          </mxGeometry>
        </mxCell>
        <mxCell id="aM9ryv3xv72pqoxQDRHE-5" value="Alquiler" style="shape=umlLifeline;perimeter=lifelinePerimeter;whiteSpace=wrap;html=1;container=1;dropTarget=0;collapsible=0;recursiveResize=0;outlineConnect=0;portConstraint=eastwest;newEdgeStyle={&quot;edgeStyle&quot;:&quot;elbowEdgeStyle&quot;,&quot;elbow&quot;:&quot;vertical&quot;,&quot;curved&quot;:0,&quot;rounded&quot;:0};" parent="1" vertex="1">
          <mxGeometry x="303" y="40" width="100" height="590" as="geometry" />
        </mxCell>
        <mxCell id="51Oc-zoMCvbec5EIXnkQ-62" value="" style="shape=umlDestroy;whiteSpace=wrap;html=1;strokeWidth=3;targetShapes=umlLifeline;" vertex="1" parent="aM9ryv3xv72pqoxQDRHE-5">
          <mxGeometry x="36" y="460" width="30" height="30" as="geometry" />
        </mxCell>
        <mxCell id="51Oc-zoMCvbec5EIXnkQ-41" value="Interfaz Escritorio&lt;div&gt;&lt;br&gt;&lt;/div&gt;&lt;div&gt;&lt;br&gt;&lt;/div&gt;&lt;div&gt;&lt;br&gt;&lt;/div&gt;&lt;div&gt;&lt;br&gt;&lt;/div&gt;&lt;div&gt;&lt;br&gt;&lt;/div&gt;" style="shape=umlLifeline;perimeter=lifelinePerimeter;whiteSpace=wrap;html=1;container=1;dropTarget=0;collapsible=0;recursiveResize=0;outlineConnect=0;portConstraint=eastwest;newEdgeStyle={&quot;curved&quot;:0,&quot;rounded&quot;:0};participant=umlActor;" vertex="1" parent="1">
          <mxGeometry x="104" y="40" width="20" height="580" as="geometry" />
        </mxCell>
        <mxCell id="51Oc-zoMCvbec5EIXnkQ-44" value="" style="html=1;points=[[0,0,0,0,5],[0,1,0,0,-5],[1,0,0,0,5],[1,1,0,0,-5]];perimeter=orthogonalPerimeter;outlineConnect=0;targetShapes=umlLifeline;portConstraint=eastwest;newEdgeStyle={&quot;curved&quot;:0,&quot;rounded&quot;:0};" vertex="1" parent="51Oc-zoMCvbec5EIXnkQ-41">
          <mxGeometry x="5" y="74" width="10" height="466" as="geometry" />
        </mxCell>
        <mxCell id="51Oc-zoMCvbec5EIXnkQ-42" value="" style="group" vertex="1" connectable="0" parent="1">
          <mxGeometry x="-71" y="40" width="20" height="580" as="geometry" />
        </mxCell>
        <mxCell id="51Oc-zoMCvbec5EIXnkQ-7" value="&lt;div&gt;Empleado&lt;/div&gt;&lt;div&gt;&lt;br&gt;&lt;/div&gt;&lt;div&gt;&lt;br&gt;&lt;/div&gt;&lt;div&gt;&lt;br&gt;&lt;/div&gt;&lt;div&gt;&lt;br&gt;&lt;/div&gt;" style="shape=umlLifeline;perimeter=lifelinePerimeter;whiteSpace=wrap;html=1;container=0;dropTarget=0;collapsible=0;recursiveResize=0;outlineConnect=0;portConstraint=eastwest;newEdgeStyle={&quot;curved&quot;:0,&quot;rounded&quot;:0};participant=umlActor;" vertex="1" parent="51Oc-zoMCvbec5EIXnkQ-42">
          <mxGeometry width="20" height="580" as="geometry" />
        </mxCell>
        <mxCell id="aM9ryv3xv72pqoxQDRHE-2" value="" style="html=1;points=[];perimeter=orthogonalPerimeter;outlineConnect=0;targetShapes=umlLifeline;portConstraint=eastwest;newEdgeStyle={&quot;edgeStyle&quot;:&quot;elbowEdgeStyle&quot;,&quot;elbow&quot;:&quot;vertical&quot;,&quot;curved&quot;:0,&quot;rounded&quot;:0};" parent="51Oc-zoMCvbec5EIXnkQ-42" vertex="1">
          <mxGeometry x="5" y="70" width="10" height="470" as="geometry" />
        </mxCell>
        <mxCell id="51Oc-zoMCvbec5EIXnkQ-45" value="selecciona la opciÃ³n&lt;div&gt;de Crear alquiler&lt;/div&gt;" style="html=1;verticalAlign=bottom;endArrow=block;curved=0;rounded=0;" edge="1" parent="1" target="51Oc-zoMCvbec5EIXnkQ-44">
          <mxGeometry width="80" relative="1" as="geometry">
            <mxPoint x="-56" y="114" as="sourcePoint" />
            <mxPoint x="29" y="114" as="targetPoint" />
          </mxGeometry>
        </mxCell>
        <mxCell id="51Oc-zoMCvbec5EIXnkQ-48" value="Cliente" style="shape=umlLifeline;perimeter=lifelinePerimeter;whiteSpace=wrap;html=1;container=1;dropTarget=0;collapsible=0;recursiveResize=0;outlineConnect=0;portConstraint=eastwest;newEdgeStyle={&quot;curved&quot;:0,&quot;rounded&quot;:0};" vertex="1" parent="1">
          <mxGeometry x="480" y="40" width="100" height="340" as="geometry" />
        </mxCell>
        <mxCell id="51Oc-zoMCvbec5EIXnkQ-49" value="" style="html=1;points=[[0,0,0,0,5],[0,1,0,0,-5],[1,0,0,0,5],[1,1,0,0,-5]];perimeter=orthogonalPerimeter;outlineConnect=0;targetShapes=umlLifeline;portConstraint=eastwest;newEdgeStyle={&quot;curved&quot;:0,&quot;rounded&quot;:0};" vertex="1" parent="51Oc-zoMCvbec5EIXnkQ-48">
          <mxGeometry x="45" y="280" width="10" height="30" as="geometry" />
        </mxCell>
        <mxCell id="51Oc-zoMCvbec5EIXnkQ-55" value="" style="shape=umlDestroy;whiteSpace=wrap;html=1;strokeWidth=3;targetShapes=umlLifeline;" vertex="1" parent="51Oc-zoMCvbec5EIXnkQ-48">
          <mxGeometry x="35" y="310" width="30" height="30" as="geometry" />
        </mxCell>
        <mxCell id="51Oc-zoMCvbec5EIXnkQ-50" value="" style="html=1;verticalAlign=bottom;endArrow=open;dashed=1;endSize=8;curved=0;rounded=0;" edge="1" parent="1" target="aM9ryv3xv72pqoxQDRHE-6">
          <mxGeometry relative="1" as="geometry">
            <mxPoint x="691" y="243" as="sourcePoint" />
            <mxPoint x="119" y="243" as="targetPoint" />
          </mxGeometry>
        </mxCell>
        <mxCell id="aM9ryv3xv72pqoxQDRHE-6" value="" style="html=1;points=[];perimeter=orthogonalPerimeter;outlineConnect=0;targetShapes=umlLifeline;portConstraint=eastwest;newEdgeStyle={&quot;edgeStyle&quot;:&quot;elbowEdgeStyle&quot;,&quot;elbow&quot;:&quot;vertical&quot;,&quot;curved&quot;:0,&quot;rounded&quot;:0};" parent="1" vertex="1">
          <mxGeometry x="349" y="120" width="10" height="380" as="geometry" />
        </mxCell>
        <mxCell id="51Oc-zoMCvbec5EIXnkQ-51" value="" style="html=1;verticalAlign=bottom;endArrow=open;dashed=1;endSize=8;curved=0;rounded=0;" edge="1" parent="1">
          <mxGeometry relative="1" as="geometry">
            <mxPoint x="109" y="290" as="sourcePoint" />
            <mxPoint x="-56" y="290" as="targetPoint" />
          </mxGeometry>
        </mxCell>
        <mxCell id="51Oc-zoMCvbec5EIXnkQ-52" value="&lt;div&gt;Mensaje de error:&lt;/div&gt;Pide los datos del&amp;nbsp;&lt;div&gt;cliente a registrar&lt;/div&gt;" style="edgeLabel;html=1;align=center;verticalAlign=middle;resizable=0;points=[];" vertex="1" connectable="0" parent="51Oc-zoMCvbec5EIXnkQ-51">
          <mxGeometry x="-0.0604" y="-1" relative="1" as="geometry">
            <mxPoint y="1" as="offset" />
          </mxGeometry>
        </mxCell>
        <mxCell id="51Oc-zoMCvbec5EIXnkQ-58" value="actualizarBD(alquiler)" style="html=1;verticalAlign=bottom;endArrow=block;curved=0;rounded=0;" edge="1" parent="1">
          <mxGeometry width="80" relative="1" as="geometry">
            <mxPoint x="359" y="460" as="sourcePoint" />
            <mxPoint x="690" y="460" as="targetPoint" />
          </mxGeometry>
        </mxCell>
        <mxCell id="51Oc-zoMCvbec5EIXnkQ-59" value="" style="html=1;verticalAlign=bottom;endArrow=open;dashed=1;endSize=8;curved=0;rounded=0;" edge="1" parent="1" target="51Oc-zoMCvbec5EIXnkQ-44">
          <mxGeometry relative="1" as="geometry">
            <mxPoint x="349" y="490" as="sourcePoint" />
            <mxPoint x="269" y="490" as="targetPoint" />
          </mxGeometry>
        </mxCell>
        <mxCell id="51Oc-zoMCvbec5EIXnkQ-68" value="Mensaje de exito" style="edgeLabel;html=1;align=center;verticalAlign=middle;resizable=0;points=[];" vertex="1" connectable="0" parent="51Oc-zoMCvbec5EIXnkQ-59">
          <mxGeometry x="0.0361" y="-2" relative="1" as="geometry">
            <mxPoint as="offset" />
          </mxGeometry>
        </mxCell>
        <mxCell id="51Oc-zoMCvbec5EIXnkQ-60" value="Mensaje de exito" style="html=1;verticalAlign=bottom;endArrow=open;dashed=1;endSize=8;curved=0;rounded=0;" edge="1" parent="1">
          <mxGeometry x="-0.0361" y="10" relative="1" as="geometry">
            <mxPoint x="110" y="520" as="sourcePoint" />
            <mxPoint x="-56" y="520" as="targetPoint" />
            <mxPoint as="offset" />
          </mxGeometry>
        </mxCell>
        <mxCell id="51Oc-zoMCvbec5EIXnkQ-57" value="Datos correctos" style="html=1;verticalAlign=bottom;endArrow=open;dashed=1;endSize=8;curved=0;rounded=0;" edge="1" parent="1">
          <mxGeometry relative="1" as="geometry">
            <mxPoint x="691" y="430" as="sourcePoint" />
            <mxPoint x="360" y="430" as="targetPoint" />
          </mxGeometry>
        </mxCell>
        <mxCell id="51Oc-zoMCvbec5EIXnkQ-65" value="" style="group" vertex="1" connectable="0" parent="1">
          <mxGeometry x="646" y="40" width="100" height="480" as="geometry" />
        </mxCell>
        <mxCell id="51Oc-zoMCvbec5EIXnkQ-1" value="Base de Datos" style="shape=umlLifeline;perimeter=lifelinePerimeter;whiteSpace=wrap;html=1;container=0;dropTarget=0;collapsible=0;recursiveResize=0;outlineConnect=0;portConstraint=eastwest;newEdgeStyle={&quot;edgeStyle&quot;:&quot;elbowEdgeStyle&quot;,&quot;elbow&quot;:&quot;vertical&quot;,&quot;curved&quot;:0,&quot;rounded&quot;:0};" vertex="1" parent="51Oc-zoMCvbec5EIXnkQ-65">
          <mxGeometry width="100" height="480" as="geometry" />
        </mxCell>
        <mxCell id="51Oc-zoMCvbec5EIXnkQ-61" value="" style="shape=umlDestroy;whiteSpace=wrap;html=1;strokeWidth=3;targetShapes=umlLifeline;" vertex="1" parent="51Oc-zoMCvbec5EIXnkQ-1">
          <mxGeometry x="35" y="430" width="30" height="30" as="geometry" />
        </mxCell>
        <mxCell id="51Oc-zoMCvbec5EIXnkQ-2" value="" style="html=1;points=[];perimeter=orthogonalPerimeter;outlineConnect=0;targetShapes=umlLifeline;portConstraint=eastwest;newEdgeStyle={&quot;edgeStyle&quot;:&quot;elbowEdgeStyle&quot;,&quot;elbow&quot;:&quot;vertical&quot;,&quot;curved&quot;:0,&quot;rounded&quot;:0};" vertex="1" parent="51Oc-zoMCvbec5EIXnkQ-65">
          <mxGeometry x="45" y="110" width="10" height="100" as="geometry" />
        </mxCell>
        <mxCell id="51Oc-zoMCvbec5EIXnkQ-54" value="" style="html=1;points=[];perimeter=orthogonalPerimeter;outlineConnect=0;targetShapes=umlLifeline;portConstraint=eastwest;newEdgeStyle={&quot;edgeStyle&quot;:&quot;elbowEdgeStyle&quot;,&quot;elbow&quot;:&quot;vertical&quot;,&quot;curved&quot;:0,&quot;rounded&quot;:0};" vertex="1" parent="51Oc-zoMCvbec5EIXnkQ-65">
          <mxGeometry x="45" y="300" width="10" height="10" as="geometry" />
        </mxCell>
        <mxCell id="51Oc-zoMCvbec5EIXnkQ-56" value="" style="html=1;points=[];perimeter=orthogonalPerimeter;outlineConnect=0;targetShapes=umlLifeline;portConstraint=eastwest;newEdgeStyle={&quot;edgeStyle&quot;:&quot;elbowEdgeStyle&quot;,&quot;elbow&quot;:&quot;vertical&quot;,&quot;curved&quot;:0,&quot;rounded&quot;:0};" vertex="1" parent="51Oc-zoMCvbec5EIXnkQ-65">
          <mxGeometry x="45" y="390" width="10" height="40" as="geometry" />
        </mxCell>
        <mxCell id="51Oc-zoMCvbec5EIXnkQ-66" value="" style="html=1;verticalAlign=bottom;endArrow=open;dashed=1;endSize=8;curved=0;rounded=0;" edge="1" parent="1">
          <mxGeometry relative="1" as="geometry">
            <mxPoint x="350" y="269" as="sourcePoint" />
            <mxPoint x="120" y="269.38" as="targetPoint" />
          </mxGeometry>
        </mxCell>
      </root>
    </mxGraphModel>
  </diagram>
</mxfile>
